<svg width="0" height="0" class="hidden">
  <symbol fill="none" xmlns="http://www.w3.org/2000/svg" viewBox="0 0 36 24" id="Arrow - Left">
    <g id="Iconly/Light-Outline/Arrow - Left">
      <g id="Arrow - Left">
        <path id="Stroke 1" d="M30 12.2743C30 12.654 29.5768 12.9678 29.0277 13.0174L28.875 13.0243L6.375 13.0243C5.75368 13.0243 5.25 12.6885 5.25 12.2743C5.25 11.8946 5.67323 11.5808 6.22234 11.5311L6.375 11.5243L28.875 11.5243C29.4963 11.5243 30 11.8601 30 12.2743Z" fill="#8000FF"></path>
        <path id="Stroke 3" d="M16.2435 17.7673C16.6838 18.0595 16.6853 18.5344 16.2469 18.8279C15.8484 19.0948 15.2235 19.1199 14.7823 18.9027L14.6559 18.8302L5.58093 12.8062C5.17947 12.5397 5.14295 12.1216 5.47138 11.8276L5.58086 11.7433L14.6559 5.71833C15.0961 5.42604 15.8084 5.42703 16.2468 5.72052C16.6454 5.98734 16.6804 6.40406 16.3527 6.69721L16.2436 6.78118L7.96951 12.2751L16.2435 17.7673Z" fill="#8000FF"></path>
      </g>
    </g>
  </symbol>
</svg>