<svg width="50" height="50" viewBox="0 0 50 50" fill="none" xmlns="http://www.w3.org/2000/svg">
<rect width="50" height="50" fill="white"/>
<path fill-rule="evenodd" clip-rule="evenodd" d="M45.8335 25C45.8335 36.5 36.4794 45.8334 25.0002 45.8334L24.4174 45.8254C13.1865 45.5164 4.16687 36.3051 4.16687 25C4.16687 13.5209 13.5002 4.16669 25.0002 4.16669C36.4794 4.16669 45.8335 13.5209 45.8335 25ZM20.8752 16.6667C20.271 17.2917 20.271 18.2709 20.896 18.875L27.0419 25L20.896 31.125C20.271 31.7292 20.271 32.7292 20.8752 33.3334C21.5002 33.9584 22.4794 33.9584 23.0835 33.3334L30.3544 26.1042C30.646 25.8125 30.8127 25.4167 30.8127 25C30.8127 24.5834 30.646 24.1875 30.3544 23.8959L23.0835 16.6667C22.7919 16.3542 22.396 16.2084 22.0002 16.2084C21.5835 16.2084 21.1877 16.3542 20.8752 16.6667Z" fill="#8F00FF"/>
</svg>
