<svg width="50" height="50" viewBox="0 0 50 50" fill="none" xmlns="http://www.w3.org/2000/svg">
<path fill-rule="evenodd" clip-rule="evenodd" d="M4.16663 25C4.16663 13.5 13.5208 4.16669 25 4.16669L25.5828 4.1747C36.8137 4.48369 45.8333 13.6949 45.8333 25C45.8333 36.4792 36.5 45.8334 25 45.8334C13.5208 45.8334 4.16663 36.4792 4.16663 25ZM29.125 33.3334C29.7291 32.7084 29.7291 31.7292 29.1041 31.125L22.9583 25L29.1041 18.875C29.7291 18.2709 29.7291 17.2709 29.125 16.6667C28.5 16.0417 27.5208 16.0417 26.9166 16.6667L19.6458 23.8959C19.3541 24.1875 19.1875 24.5834 19.1875 25C19.1875 25.4167 19.3541 25.8125 19.6458 26.1042L26.9166 33.3334C27.2083 33.6459 27.6041 33.7917 28 33.7917C28.4166 33.7917 28.8125 33.6459 29.125 33.3334Z" fill="#9E00FF"/>
</svg>
