<svg width="24" height="20" viewBox="0 0 24 20" fill="none" xmlns="http://www.w3.org/2000/svg">
<g id="Iconly/Light-Outline/Arrow - Left">
<g id="Arrow - Left">
<path id="Stroke 1" d="M20 10.2286C20 10.545 19.7178 10.8065 19.3518 10.8479L19.25 10.8536L4.25 10.8536C3.83579 10.8536 3.5 10.5738 3.5 10.2286C3.5 9.91222 3.78215 9.65073 4.14823 9.60934L4.25 9.60364L19.25 9.60364C19.6642 9.60364 20 9.88346 20 10.2286Z" fill="#8000FF"/>
<path id="Stroke 3" d="M10.829 14.8061C11.1225 15.0496 11.1235 15.4453 10.8313 15.69C10.5656 15.9123 10.149 15.9332 9.85489 15.7522L9.77062 15.6919L3.72062 10.6719C3.45298 10.4498 3.42863 10.1014 3.64759 9.8563L3.72057 9.78611L9.77057 4.76527C10.0641 4.5217 10.5389 4.52252 10.8312 4.7671C11.0969 4.98945 11.1203 5.33671 10.9018 5.58101L10.829 5.65099L5.313 10.2292L10.829 14.8061Z" fill="#8000FF"/>
</g>
</g>
</svg>
