<!--?xml version="1.0" encoding="UTF-8" standalone="no" ?-->

<svg xmlns="http://www.w3.org/2000/svg" xmlns:xlink="http://www.w3.org/1999/xlink" version="1.1" width="600" height="600" viewBox="243 31.80000000000001 600 600" xml:space="preserve">
<desc>Created by Logonomy.ir</desc>
<defs>
</defs>


<g transform="matrix(1.94 0 0 1.94 543 241.22)" id="62761221-bbe5-4db8-ad50-0f7b9d2dced5">
<g style="" vector-effect="non-scaling-stroke">
		<g transform="matrix(1 0 0 1 -43 11.6)" id="Layer_1">
<polygon style="stroke: none; stroke-width: 1; stroke-dasharray: none; stroke-linecap: butt; stroke-dashoffset: 0; stroke-linejoin: miter; stroke-miterlimit: 4; fill: rgb(181,0,255); fill-rule: nonzero; opacity: 1;" points="13,3.9 13,-20.6 -13,-20.6 -13,20.6 2.9,-4.2 "></polygon>
</g>
		<g transform="matrix(1 0 0 1 -12 6.5)" id="Layer_1">
<polygon style="stroke: none; stroke-width: 1; stroke-dasharray: none; stroke-linecap: butt; stroke-dashoffset: 0; stroke-linejoin: miter; stroke-miterlimit: 4; fill: rgb(181,0,255); fill-rule: nonzero; opacity: 1;" points="13,33.2 13,-33.5 -13,-33.5 -13,13 12.7,33.5 "></polygon>
</g>
		<g transform="matrix(1 0 0 1 20.5 -5.15)" id="Layer_1">
<polygon style="stroke: none; stroke-width: 1; stroke-dasharray: none; stroke-linecap: butt; stroke-dashoffset: 0; stroke-linejoin: miter; stroke-miterlimit: 4; fill: rgb(181,0,255); fill-rule: nonzero; opacity: 1;" points="13.5,-38.85 -13.5,-38.85 -13.5,38.85 13.5,14.35 "></polygon>
</g>
		<g transform="matrix(1 0 0 1 0.35 17.9)" id="Layer_1">
<polygon style="stroke: none; stroke-width: 1; stroke-dasharray: none; stroke-linecap: butt; stroke-dashoffset: 0; stroke-linejoin: miter; stroke-miterlimit: 4; fill: rgb(181,0,255); fill-rule: nonzero; opacity: 1;" points="41.95,-27.8 40.25,-27.3 46.45,-20.8 47.65,-19.6 0.45,24.5 -40.55,-8.2 -63.85,29.2 -68.25,36.2 -56.15,23.5 -39.45,6.2 -30.35,13.1 -25.35,16.8 -16.35,23.5 0.45,36.2 14.15,23.5 33.45,5.8 54.35,-13.4 63.65,-4.5 68.25,-36.2 67.75,-36.1 "></polygon>
</g>
</g>
</g>
</svg>