<svg width="23" height="21" viewBox="0 0 23 21" fill="none" xmlns="http://www.w3.org/2000/svg">
<path fill-rule="evenodd" clip-rule="evenodd" d="M22.7501 9.27296C22.7501 9.70733 22.3687 10.0605 21.8996 10.0605H21.8895V10.0417C21.4147 10.0417 21.03 9.6865 21.0289 9.24692V9.24483V6.59692C21.0289 3.41671 19.1501 1.67712 15.7256 1.67712H7.28812C3.86137 1.67712 1.97137 3.42712 1.97137 6.59692V14.4094C1.97137 17.5698 3.86137 19.3198 7.28475 19.3198H15.7222C19.1456 19.3198 21.0255 17.5698 21.0255 14.4094C21.0255 13.9698 21.4102 13.6125 21.8861 13.6125C22.362 13.6125 22.7467 13.9698 22.7467 14.4094C22.7501 18.425 20.0591 20.9167 15.7256 20.9167H7.28475C2.94112 20.9167 0.250122 18.425 0.250122 14.4125V6.60004C0.250122 2.57504 2.94112 0.083374 7.28475 0.083374H15.7222C20.0389 0.083374 22.7501 2.57504 22.7501 6.59692V9.27296ZM10.1654 11.8683L14.9084 7.47556C15.238 7.17035 15.7724 7.17035 16.102 7.47556C16.4317 7.78077 16.4317 8.27556 16.102 8.58077L10.7617 13.5256C10.603 13.6714 10.3882 13.7537 10.1654 13.7537C9.94042 13.7537 9.72667 13.6714 9.56804 13.5256L6.89842 11.0526C6.56879 10.7474 6.56879 10.2526 6.89842 9.94743C7.22804 9.64223 7.76242 9.64223 8.09204 9.94743L10.1654 11.8683Z" fill="#006623"/>
</svg>
