<svg width="24" height="24" viewBox="0 0 16 16" fill="none" xmlns="http://www.w3.org/2000/svg">
<g id="Iconly/Light-Outline/Time Circle">
<g id="Time Circle">
<path id="Fill 1" fill-rule="evenodd" clip-rule="evenodd" d="M12 3.5C7.313 3.5 3.5 7.313 3.5 12C3.5 16.687 7.313 20.5 12 20.5C16.687 20.5 20.5 16.687 20.5 12C20.5 7.313 16.687 3.5 12 3.5ZM12 22C6.486 22 2 17.514 2 12C2 6.486 6.486 2 12 2C17.514 2 22 6.486 22 12C22 17.514 17.514 22 12 22Z" fill="#9105FF"/>
<path id="Fill 3" fill-rule="evenodd" clip-rule="evenodd" d="M15.4311 15.6925C15.3001 15.6925 15.1681 15.6585 15.0471 15.5875L11.2771 13.3385C11.0511 13.2025 10.9111 12.9575 10.9111 12.6935V7.84546C10.9111 7.43146 11.2471 7.09546 11.6611 7.09546C12.0761 7.09546 12.4111 7.43146 12.4111 7.84546V12.2675L15.8161 14.2975C16.1711 14.5105 16.2881 14.9705 16.0761 15.3265C15.9351 15.5615 15.6861 15.6925 15.4311 15.6925Z" fill="#9105FF"/>
</g>
</g>
</svg>
<svg width="0" height="0" class="hidden">
  <symbol fill="none" xmlns="http://www.w3.org/2000/svg" viewBox="0 0 36 24" id="Arrow - Left">
    <g id="Iconly/Light-Outline/Arrow - Left">
      <g id="Arrow - Left">
        <path id="Stroke 1" d="M30 12.2743C30 12.654 29.5768 12.9678 29.0277 13.0174L28.875 13.0243L6.375 13.0243C5.75368 13.0243 5.25 12.6885 5.25 12.2743C5.25 11.8946 5.67323 11.5808 6.22234 11.5311L6.375 11.5243L28.875 11.5243C29.4963 11.5243 30 11.8601 30 12.2743Z" fill="#8000FF"></path>
        <path id="Stroke 3" d="M16.2435 17.7673C16.6838 18.0595 16.6853 18.5344 16.2469 18.8279C15.8484 19.0948 15.2235 19.1199 14.7823 18.9027L14.6559 18.8302L5.58093 12.8062C5.17947 12.5397 5.14295 12.1216 5.47138 11.8276L5.58086 11.7433L14.6559 5.71833C15.0961 5.42604 15.8084 5.42703 16.2468 5.72052C16.6454 5.98734 16.6804 6.40406 16.3527 6.69721L16.2436 6.78118L7.96951 12.2751L16.2435 17.7673Z" fill="#8000FF"></path>
      </g>
    </g>
  </symbol>
</svg>